<svg id="Component_5_1" data-name="Component 5 – 1" xmlns="http://www.w3.org/2000/svg" width="848.245" height="724.205" viewBox="0 0 848.245 724.205">
  <path id="Path_37" data-name="Path 37" d="M521.813,1923.808c-200.275,0-390.83-60.2-522.392-419.489-5.429-90.342,0,714.206,0,714.206l446.587,1.273H843.467C781.54,2088.976,722.088,1923.808,521.813,1923.808Z" transform="translate(3.083 -1497.243)" fill="#fee"/>
  <path id="Path_36" data-name="Path 36" d="M443.058,1859.8c-321.12,3.843-439.384-279.753-444-356.538s0,607.028,0,607.028l846.1,2.484S764.178,1855.952,443.058,1859.8Z" transform="translate(3.083 -1388.565)" fill="#ffe5e4"/>
  <path id="Path_35" data-name="Path 35" d="M364.727,1896.125c-218.538,1.189-246.4-99.2-364.818-162.157,0,150.759.228,280.317.228,280.317s608.941-.263,820.336-.263C716.394,1875.7,583.264,1894.936,364.727,1896.125Z" transform="translate(0.092 -1290.08)" fill="#ffcfcd"/>
  <g id="Group_22" data-name="Group 22" transform="translate(123.576 58.214)">
    <path id="Path_15" data-name="Path 15" d="M321.522,577.363c77.425,0,140.573-2.141,140.573-4.764s-63.148-4.765-140.573-4.765-140.577,2.141-140.577,4.765S244.095,577.363,321.522,577.363Z" transform="translate(0 -21.443)" fill="#a5dced" fill-rule="evenodd"/>
    <path id="Path_16" data-name="Path 16" d="M348.64,189.651l17.506,29.117,28.822,63.182,13.589-1.019-25.489-63.036-11.714-36Z" transform="translate(-6.399 -6.716)" fill="#f3a17c" fill-rule="evenodd"/>
    <g id="Group_20" data-name="Group 20" transform="translate(313.11 330.736)">
      <path id="Path_17" data-name="Path 17" d="M359.19,550.465l33.158,6a8.874,8.874,0,0,1,5.732,3.37l.189.249a4.992,4.992,0,0,1-1.08,7.156l-4.654,3.645a18.12,18.12,0,0,1-13.566,3.633l-30.01-3.454a9.364,9.364,0,0,1-7.385-4.59l-2.474-4.433,3.546-16.273Z" transform="translate(-319.145 -351.338)" fill="#a5dced" fill-rule="evenodd"/>
      <path id="Path_18" data-name="Path 18" d="M318.353,360.424q3.705,14.807,7.408,29.615a86.293,86.293,0,0,1,.614,41.419c-7.478,34.131-2.017,75.973,11.932,122.873l20.092-11.58c-4.455-41.916-6-84.247-1.162-127.48l7.546-71.647Z" transform="translate(-318.353 -343.624)" fill="#0078a2" fill-rule="evenodd"/>
    </g>
    <g id="Group_21" data-name="Group 21" transform="translate(266.68 330.736)">
      <path id="Path_19" data-name="Path 19" d="M310.918,550.465l33.157,6a8.867,8.867,0,0,1,5.732,3.37l.191.249a4.993,4.993,0,0,1-1.081,7.156l-4.654,3.645a18.123,18.123,0,0,1-13.568,3.633l-30.009-3.454a9.36,9.36,0,0,1-7.385-4.59l-2.476-4.433,3.547-16.273Z" transform="translate(-270.873 -351.338)" fill="#a5dced" fill-rule="evenodd"/>
      <path id="Path_20" data-name="Path 20" d="M270.081,360.424q3.7,14.807,7.408,29.615a86.293,86.293,0,0,1,.615,41.419c-7.478,34.131-2.018,75.973,11.93,122.873l20.093-11.58c-4.454-41.916-5.994-84.247-1.162-127.48q3.773-35.824,7.546-71.647Q293.3,352.022,270.081,360.424Z" transform="translate(-270.081 -343.624)" fill="#0078a2" fill-rule="evenodd"/>
    </g>
    <path id="Path_21" data-name="Path 21" d="M295.367,120.8l-20.339,14.456a45.418,45.418,0,0,0-18.454,27.093l-10.123,40.845,28.164,5.434,8.222,17.06a53.023,53.023,0,0,1-.185,47.813L277.5,283.986a93.257,93.257,0,0,0-9.684,50.574l1.366,17.361h91.906l6.645-43.347a203.507,203.507,0,0,0,.459-61.607L362.072,202.7l15.318-11.364-19.766-42.1a40.3,40.3,0,0,0-21.97-20.9l-16.57-6.8Z" transform="translate(-2.5 -4.385)" fill="#1594c0" fill-rule="evenodd"/>
    <path id="Path_22" data-name="Path 22" d="M275.732,210.452l8.222,17.06A56.971,56.971,0,0,1,288.528,241h0l-3.6-53.337-9.193,22.792Zm87.457-5.929-4.148-35.887,11.808,30.206Z" transform="translate(-3.617 -6.21)" fill="#09789f" fill-rule="evenodd"/>
    <path id="Path_23" data-name="Path 23" d="M287.669,80.039l9.271,39.205,23.47,27.176.247-26.435-8.4-39.282Z" transform="translate(-4.072 -2.83)" fill="#f3a17c" fill-rule="evenodd"/>
    <path id="Path_24" data-name="Path 24" d="M287.669,80.039l4.851,20.51a41.841,41.841,0,0,0,25.935,9.183h.01L312.258,80.7Z" transform="translate(-4.072 -2.83)" fill="#c66c46" fill-rule="evenodd"/>
    <path id="Path_25" data-name="Path 25" d="M306.6,16.258c22.1,0,41.133,18.14,42.5,40.518s-15.439,40.517-37.543,40.517-41.133-18.139-42.5-40.517S284.5,16.258,306.6,16.258Z" transform="translate(-3.359 -0.396)" fill="#f3a17c" fill-rule="evenodd"/>
    <path id="Path_26" data-name="Path 26" d="M340.964,34.313A37.14,37.14,0,0,0,318.14,8.673C297.551.629,273.225,10.6,263.806,30.946c-8.179,17.664-2.427,37.338,12.708,47.481C276.009,54.581,311.821,24.313,340.964,34.313Z" transform="translate(-3.02 0)" fill="#1594c0" fill-rule="evenodd"/>
    <path id="Path_27" data-name="Path 27" d="M246.24,206.393l-5.319,30.882,3.953,70.164,12.847,2.47-.988-69.175,13.835-36.07Z" transform="translate(-2.289 -7.585)" fill="#f3a17c" fill-rule="evenodd"/>
    <path id="Path_28" data-name="Path 28" d="M233.342,289.718l26.321-.993.1,23.335a15.842,15.842,0,0,0,2.076,7.982,21.06,21.06,0,0,1,2.682,8l.242,1.843h-3.72l.893,6.433a4.083,4.083,0,0,1-4.043,4.653h-7.965A7.476,7.476,0,0,1,243,336.51a12.01,12.01,0,0,1-.676-8.243,30.573,30.573,0,0,0-1.379-20.062Z" transform="translate(-1.999 -10.793)" fill="#1594c0" fill-rule="evenodd"/>
    <path id="Path_29" data-name="Path 29" d="M379.768,260.477l23.169-8.947,9.8,32.377a24.092,24.092,0,0,0,4.059,8.37,28.208,28.208,0,0,1,4.693,8.384l.69,1.932-2.676,3.374,1.225,3.373a3.718,3.718,0,0,1-.241,3.406,3.247,3.247,0,0,1-2.9,1.474h-8.353a10.262,10.262,0,0,1-8.318-4.674,14.2,14.2,0,0,1-2.651-8.645c.256-7.259-1.747-14.076-6.172-21.039Z" transform="translate(-7.587 -9.373)" fill="#1594c0" fill-rule="evenodd"/>
    <path id="Path_30" data-name="Path 30" d="M212.98,419.5h65.279V367.52h-76.9v40.366A11.651,11.651,0,0,0,212.98,419.5Z" transform="translate(-0.779 -13.799)" fill="#ce3a1a" fill-rule="evenodd"/>
    <path id="Path_31" data-name="Path 31" d="M275.244,419.5h19.4a11.652,11.652,0,0,0,11.619-11.617V367.52h-42.64v40.366A11.652,11.652,0,0,0,275.244,419.5Z" transform="translate(-3.155 -13.799)" fill="#ac271b" fill-rule="evenodd"/>
    <path id="Path_32" data-name="Path 32" d="M211.676,344.328H279v23.963h-79.3V356.31A12.018,12.018,0,0,1,211.676,344.328Z" transform="translate(-0.715 -12.914)" fill="#e2d7d3" fill-rule="evenodd"/>
    <path id="Path_33" data-name="Path 33" d="M275.89,344.328H295.9a12.017,12.017,0,0,1,11.982,11.982v11.982H263.908V356.31A12.017,12.017,0,0,1,275.89,344.328Z" transform="translate(-3.166 -12.914)" fill="#cdbfbb" fill-rule="evenodd"/>
    <path id="Path_34" data-name="Path 34" d="M229.538,372.71c8.255,0,14.947,7.41,14.947,16.553s-6.693,16.551-14.947,16.551-14.947-7.41-14.947-16.551,6.693-16.553,14.947-16.553ZM218.9,394.389h6.012v6.659h9.261v-6.659h6.012V384.136h-6.012v-6.659h-9.261v6.659H218.9Z" transform="translate(-1.284 -13.998)" fill="#e2d7d3" fill-rule="evenodd"/>
  </g>
</svg>
